<?xml version="1.0" encoding="UTF-8"?>
<svg id="Capa_2" data-name="Capa 2" xmlns="http://www.w3.org/2000/svg" viewBox="0 0 46.54 66">
  <defs>
    <style>
      .cls-1 {
        fill: #b79259;
      }
    </style>
  </defs>
  <g id="Capa_1-2" data-name="Capa 1">
    <path class="cls-1" d="M7.7,66c-4.25,0-7.7-3.45-7.7-7.7V22.93c0-4.25,3.45-7.7,7.7-7.7,2.06,0,3.99.8,5.44,2.26,1.19,1.19,1.94,2.7,2.18,4.33l8.15-8.15H7.77c-3.74,0-6.79-3.04-6.79-6.79v-.09C.98,3.04,4.03,0,7.77,0h31.99c3.74,0,6.79,3.04,6.79,6.79v.09c0,2.31-1.2,4.49-3.14,5.72l-28,28v.95l17-17c2.05-2.05,4.98-2.63,7.66-1.52,2.67,1.11,4.34,3.59,4.34,6.49,0,1.88-.73,3.64-2.06,4.97l-29.4,29.4c-.39.39-.81.72-1.25,1.01-.04.02-.07.05-.11.07l-.03.02c-.69.4-1.44.68-2.22.85-.53.11-1.07.17-1.61.17ZM7.7,18.67c-2.35,0-4.26,1.91-4.26,4.26v35.37c0,2.35,1.91,4.26,4.26,4.26.3,0,.6-.03.9-.09.43-.09.84-.25,1.22-.46h.02c.23-.16.46-.34.66-.55l29.4-29.4c.68-.68,1.05-1.58,1.05-2.54,0-1.5-.83-2.74-2.21-3.31-1.39-.57-2.85-.28-3.91.78l-22.87,22.87v-10.67l29.31-29.31.19-.11c1.02-.6,1.65-1.71,1.65-2.88v-.09c0-1.85-1.5-3.35-3.35-3.35H7.77c-1.85,0-3.35,1.5-3.35,3.35v.09c0,1.85,1.5,3.35,3.35,3.35h24.01L11.96,30.04v-7.11c0-1.14-.44-2.21-1.25-3.01-.81-.81-1.87-1.25-3.01-1.25Z"/>
  </g>
</svg>